<?xml version="1.0" encoding="UTF-8"?>
<svg id="Capa_2" data-name="Capa 2" xmlns="http://www.w3.org/2000/svg" xmlns:xlink="http://www.w3.org/1999/xlink" viewBox="0 0 214.03 126.2">
  <defs>
    <style>
      .cls-1 {
        fill: #d6dbe2;
      }

      .cls-2 {
        fill: url(#Degradado_sin_nombre_13-3);
      }

      .cls-3 {
        fill: url(#Degradado_sin_nombre_13-2);
      }

      .cls-4 {
        fill: url(#Degradado_sin_nombre_13-4);
      }

      .cls-5 {
        stroke: url(#Degradado_sin_nombre_11-2);
      }

      .cls-5, .cls-6 {
        fill: none;
        stroke-miterlimit: 10;
        stroke-width: .1px;
      }

      .cls-7 {
        fill: #fff;
      }

      .cls-8 {
        fill: url(#Degradado_sin_nombre_13);
      }

      .cls-9 {
        fill: url(#Degradado_sin_nombre_14);
      }

      .cls-10 {
        fill: #00223e;
      }

      .cls-6 {
        stroke: url(#Degradado_sin_nombre_11);
      }
    </style>
    <linearGradient id="Degradado_sin_nombre_13" data-name="Degradado sin nombre 13" x1="187.52" y1="20.8" x2="204.12" y2="20.8" gradientTransform="translate(0 126.37) scale(1 -1)" gradientUnits="userSpaceOnUse">
      <stop offset="0" stop-color="#fff"/>
      <stop offset="1" stop-color="#505254"/>
    </linearGradient>
    <linearGradient id="Degradado_sin_nombre_13-2" data-name="Degradado sin nombre 13" x1="176.04" x2="192.64" xlink:href="#Degradado_sin_nombre_13"/>
    <linearGradient id="Degradado_sin_nombre_11" data-name="Degradado sin nombre 11" x1="187.47" y1="20.8" x2="204.17" y2="20.8" gradientTransform="translate(0 126.37) scale(1 -1)" gradientUnits="userSpaceOnUse">
      <stop offset="0" stop-color="#fff"/>
      <stop offset=".33" stop-color="#505254"/>
      <stop offset=".55" stop-color="#fff"/>
      <stop offset="1" stop-color="#505254"/>
    </linearGradient>
    <linearGradient id="Degradado_sin_nombre_11-2" data-name="Degradado sin nombre 11" x1="185.28" y1="12.5" x2="183.54" y2="29.1" xlink:href="#Degradado_sin_nombre_11"/>
    <linearGradient id="Degradado_sin_nombre_13-3" data-name="Degradado sin nombre 13" x1="177.83" y1="9.26" x2="202.49" y2="9.26" xlink:href="#Degradado_sin_nombre_13"/>
    <linearGradient id="Degradado_sin_nombre_13-4" data-name="Degradado sin nombre 13" x1="11.65" y1="59.89" x2="29.29" y2="59.89" xlink:href="#Degradado_sin_nombre_13"/>
    <linearGradient id="Degradado_sin_nombre_14" data-name="Degradado sin nombre 14" x1="11.44" y1="59.89" x2="29.56" y2="59.89" gradientTransform="translate(0 126.37) scale(1 -1)" gradientUnits="userSpaceOnUse">
      <stop offset="0" stop-color="#6d6d6d"/>
      <stop offset=".24" stop-color="#b4b4b4"/>
      <stop offset=".41" stop-color="#e8e8e8"/>
      <stop offset=".6" stop-color="#fff"/>
      <stop offset=".78" stop-color="#ccc"/>
      <stop offset=".98" stop-color="#3b3b3b"/>
    </linearGradient>
  </defs>
  <g id="Layer_1" data-name="Layer 1">
    <g>
      <rect class="cls-10" width="214.03" height="126.2" rx="7.51" ry="7.51"/>
      <g>
        <path class="cls-1" d="M192.19,27.83v6.39h7.15v-6.67c-.95-.21-1.95-.35-2.97-.35-1.46,0-2.86.21-4.18.63Z"/>
        <path class="cls-1" d="M199.34,12.06h-22.45v7.15h16.41c-8.04,1.21-14.51,7.21-16.41,15.01h6.57c1.92-5.22,6.94-8.94,12.83-8.94,1.05,0,2.07.12,3.05.34v-6.41h-.02.02v-7.15h0Z"/>
      </g>
      <g>
        <circle class="cls-8" cx="195.82" cy="105.57" r="8.3"/>
        <circle class="cls-3" cx="184.34" cy="105.57" r="8.3"/>
        <circle class="cls-6" cx="195.82" cy="105.57" r="8.3"/>
        <circle class="cls-5" cx="184.41" cy="105.57" r="8.3"/>
      </g>
      <path class="cls-2" d="M181.25,118.56v-1.35c0-.51-.32-.85-.85-.86-.28,0-.56.08-.76.38-.15-.24-.38-.38-.71-.38-.23,0-.46.07-.63.32v-.27h-.47v2.16h.47v-1.2c0-.37.21-.57.53-.57s.47.2.47.57v1.2h.47v-1.2c0-.37.22-.57.53-.57s.47.2.47.57v1.2h.48ZM188.26,116.4h-.77v-.65h-.47v.65h-.44v.43h.44v.98c0,.5.19.8.75.8.2,0,.44-.06.59-.17l-.14-.4c-.14.08-.29.12-.42.12-.23,0-.31-.14-.31-.36v-.97h.77v-.43h0ZM192.26,116.35c-.27,0-.45.13-.57.32v-.26h-.46v2.16h.47v-1.21c0-.36.15-.56.46-.56.09,0,.19.01.29.05l.14-.44c-.1-.04-.24-.06-.33-.06h0ZM186.21,116.57c-.23-.15-.54-.23-.88-.23-.55,0-.9.26-.9.69,0,.35.26.57.74.64l.22.03c.26.04.38.1.38.23,0,.17-.17.26-.49.26s-.56-.1-.72-.23l-.22.37c.26.19.58.28.93.28.62,0,.98-.29.98-.7,0-.38-.28-.58-.75-.65l-.22-.03c-.2-.03-.37-.07-.37-.21,0-.16.15-.25.41-.25.28,0,.54.1.67.19l.2-.38h.02ZM198.78,116.35c-.27,0-.45.13-.57.32v-.26h-.46v2.16h.47v-1.21c0-.36.15-.56.46-.56.09,0,.19.01.29.05l.14-.44c-.1-.04-.24-.06-.33-.06h0ZM192.74,117.48c0,.65.46,1.13,1.15,1.13.32,0,.54-.07.78-.26l-.23-.38c-.18.13-.36.19-.56.19-.37,0-.65-.28-.65-.69s.28-.69.65-.69c.2,0,.39.07.56.19l.23-.38c-.23-.18-.45-.26-.78-.26-.69,0-1.15.48-1.15,1.13h0v.02ZM197.13,117.48v-1.08h-.47v.26c-.15-.19-.37-.32-.68-.32-.6,0-1.08.47-1.08,1.13s.47,1.13,1.08,1.13c.31,0,.53-.12.68-.32v.26h.47v-1.08.02ZM195.39,117.48c0-.38.25-.69.65-.69s.65.3.65.69-.26.69-.65.69-.65-.31-.65-.69h0ZM189.72,116.35c-.63,0-1.07.46-1.07,1.13s.46,1.13,1.11,1.13c.32,0,.62-.08.88-.3l-.23-.35c-.18.14-.41.23-.63.23-.3,0-.58-.14-.65-.53h1.6v-.18c0-.67-.42-1.13-1.02-1.13h.01ZM189.71,116.77c.3,0,.5.19.55.52h-1.12c.05-.31.24-.52.57-.52h0ZM201.49,117.48v-1.94h-.47v1.13c-.15-.19-.37-.32-.68-.32-.6,0-1.08.47-1.08,1.13s.47,1.13,1.08,1.13c.31,0,.53-.12.68-.32v.26h.47v-1.08h0ZM199.74,117.48c0-.38.25-.69.65-.69s.65.3.65.69-.26.69-.65.69-.65-.31-.65-.69h0ZM183.89,117.48v-1.08h-.47v.26c-.15-.19-.37-.32-.68-.32-.6,0-1.08.47-1.08,1.13s.47,1.13,1.08,1.13c.31,0,.53-.12.68-.32v.26h.47v-1.08.02ZM182.15,117.48c0-.38.25-.69.65-.69s.65.3.65.69-.26.69-.65.69-.65-.31-.65-.69ZM202.27,118.24s.06,0,.08.02c.03.01.05.03.07.05.02.02.04.04.05.07s.02.05.02.08,0,.06-.02.08c-.01.03-.03.05-.05.07s-.04.03-.07.05c-.03.01-.05.02-.08.02s-.06,0-.09-.02c-.03-.01-.05-.03-.07-.05-.02-.02-.04-.04-.05-.07-.01-.03-.02-.05-.02-.08s0-.06.02-.08c.01-.03.03-.05.05-.07s.04-.03.07-.05c.03-.01.06-.02.09-.02ZM202.27,118.63s.04,0,.06-.01c.02,0,.04-.02.05-.04.02-.02.03-.03.04-.05,0-.02.01-.04.01-.07s0-.04-.01-.07c0-.02-.02-.04-.04-.05-.02-.02-.03-.03-.05-.04s-.04-.01-.06-.01-.05,0-.07.01c-.02,0-.04.02-.05.04-.02.02-.03.03-.04.05,0,.02-.01.04-.01.07s0,.04.01.07c0,.02.02.04.04.05.02.02.03.03.05.04.02,0,.04.01.07.01ZM202.28,118.36s.05,0,.06.02c.01.01.02.03.02.05s0,.03-.02.04c-.01.01-.03.02-.05.02l.07.08h-.05l-.06-.07h-.02v.07h-.04v-.2h.09,0ZM202.23,118.4v.05h.08v-.04h-.08Z"/>
      <g>
        <rect class="cls-4" x="11.65" y="59.43" width="17.64" height="14.1" rx="3.25" ry="3.25"/>
        <path class="cls-9" d="M26.37,59.26h-11.74c-1.76,0-3.19,1.62-3.19,3.61v7.23c0,1.99,1.43,3.61,3.19,3.61h11.74c1.76,0,3.19-1.62,3.19-3.61v-7.23c0-1.99-1.43-3.61-3.19-3.61ZM29.26,62.87v1.64h-5.51v-4.91h2.61c1.59,0,2.89,1.47,2.89,3.28h.01ZM23.46,71.38h-5.92v-9.1h5.92v9.1ZM23.46,61.94h-5.92v-2.35h5.92v2.35ZM17.24,68.44h-5.5v-3.59h5.5v3.59ZM17.54,71.72h5.92v1.66h-5.92v-1.66ZM23.75,64.85h5.51v3.59h-5.51v-3.59ZM14.63,59.6h2.61v4.91h-5.5v-1.64c0-1.81,1.3-3.28,2.89-3.28h0ZM11.73,70.11v-1.32h5.5v4.6h-2.61c-1.59,0-2.89-1.47-2.89-3.28ZM26.37,73.38h-2.61v-4.6h5.51v1.32c0,1.81-1.3,3.28-2.89,3.28h-.01Z"/>
      </g>
      <g>
        <g>
          <path class="cls-7" d="M14.87,107.67l-2.06-4.66h.47l1.82,4.18,1.82-4.18h.47l-2.06,4.66h-.47,0Z"/>
          <path class="cls-7" d="M18.8,107.74c-.32,0-.57-.05-.76-.15s-.32-.23-.4-.39c-.08-.16-.12-.32-.12-.5v-.08c0-.13.03-.26.08-.4s.15-.26.29-.37.35-.18.62-.21l.93-.11c.21-.02.36-.05.45-.09.09-.04.14-.11.14-.21,0-.25-.08-.44-.25-.58s-.43-.21-.78-.21c-.18,0-.34.02-.47.06s-.25.1-.34.18-.16.18-.22.29l-.41-.13c.06-.14.13-.26.23-.36s.21-.19.34-.25.27-.11.43-.14c.15-.03.31-.05.48-.05.34,0,.62.06.84.16.21.1.37.26.47.48s.15.5.15.86v2.12h-.43v-.58c-.06.12-.15.23-.27.33s-.27.18-.44.24-.36.09-.55.09h-.01ZM18.79,107.34c.3,0,.54-.05.73-.16s.33-.24.41-.39c.09-.15.13-.3.14-.44v-.61s-.11.08-.21.11-.23.04-.4.06l-.9.11c-.21.03-.37.1-.47.2-.1.11-.15.24-.15.41v.06c0,.11.03.21.08.31s.14.18.26.25c.12.06.29.09.5.09h0Z"/>
          <path class="cls-7" d="M23.26,107.67s-.06,0-.1.01c-.04,0-.08,0-.11.01h-.11c-.47.01-.81-.1-1.04-.35-.22-.25-.34-.64-.34-1.17v-3.5h.43v3.5c0,.42.08.71.23.88.16.17.41.25.76.23.03,0,.07,0,.11-.01.04,0,.07-.01.09-.01l.07.4h0Z"/>
          <path class="cls-7" d="M26.84,106.05h-2.85c0,.41.11.72.31.95.2.23.51.34.94.34.19,0,.36-.02.49-.07.13-.04.25-.11.34-.19s.17-.17.24-.26l.38.21c-.09.14-.2.26-.33.36-.13.11-.28.19-.47.25-.18.06-.4.09-.66.09-.4,0-.72-.08-.97-.23s-.43-.37-.55-.64-.18-.6-.18-.97.06-.69.17-.97c.11-.28.29-.49.54-.65.24-.15.57-.23.97-.23s.69.08.93.23.41.37.52.64c.11.28.17.6.17.97v.17ZM24,105.68h2.4c0-.37-.1-.67-.29-.89s-.48-.33-.88-.33c-.42,0-.72.11-.91.33s-.29.52-.32.9h0Z"/>
          <path class="cls-7" d="M30.62,107.69v-1.89c0-.43-.08-.77-.23-1-.15-.23-.42-.35-.79-.35-.28,0-.53.07-.74.21-.22.14-.39.33-.51.57s-.19.5-.19.79v1.68h-.43v-3.53h.43v.8c.08-.16.19-.31.33-.45.14-.14.3-.25.49-.33s.41-.13.65-.13c.35,0,.63.07.83.21.21.14.36.34.45.6.09.26.14.57.14.93v1.92h-.43v-.03Z"/>
          <path class="cls-7" d="M33.99,107.69s-.07,0-.11.01c-.04,0-.07,0-.11.01-.04,0-.07,0-.11.01-.47.01-.81-.1-1.03-.36-.22-.25-.34-.64-.34-1.18v-1.66h-.53v-.4h.54l.08-1.44h.34v1.44h.95v.4h-.95v1.65c0,.42.08.72.24.89s.41.25.76.23h.19l.08.39h0Z"/>
          <path class="cls-7" d="M34.78,103.44c-.08,0-.15-.03-.2-.08-.05-.05-.08-.12-.08-.19s.03-.14.08-.19.12-.08.2-.08.14.03.19.08.08.12.08.19-.03.14-.08.19-.12.08-.19.08ZM35,104.13v3.53h-.43v-3.53h.43Z"/>
          <path class="cls-7" d="M39.1,107.69v-1.89c0-.43-.08-.77-.23-1-.15-.23-.42-.35-.79-.35-.28,0-.53.07-.74.21-.22.14-.39.33-.51.57s-.19.5-.19.79v1.68h-.43v-3.53h.43v.8c.08-.16.19-.31.33-.45.14-.14.3-.25.49-.33s.41-.13.65-.13c.35,0,.63.07.83.21.21.14.36.34.45.6.09.26.14.57.14.93v1.92h-.43v-.03Z"/>
          <path class="cls-7" d="M41.68,107.74c-.32,0-.57-.05-.76-.15s-.32-.23-.4-.39c-.08-.16-.12-.32-.12-.5v-.08c0-.13.03-.26.08-.4s.15-.26.29-.37.35-.18.62-.21l.93-.11c.21-.02.36-.05.45-.09.09-.04.14-.11.14-.21,0-.25-.08-.44-.25-.58s-.43-.21-.78-.21c-.18,0-.34.02-.47.06s-.25.1-.34.18-.16.18-.22.29l-.41-.13c.06-.14.13-.26.23-.36s.21-.19.34-.25.27-.11.43-.14c.15-.03.31-.05.48-.05.34,0,.62.06.84.16.21.1.37.26.47.48s.15.5.15.86v2.12h-.43v-.58c-.06.12-.15.23-.27.33s-.27.18-.44.24-.36.09-.55.09h-.01ZM41.66,107.34c.3,0,.54-.05.73-.16s.33-.24.41-.39c.09-.15.13-.3.14-.44v-.61s-.11.08-.21.11-.23.04-.4.06l-.9.11c-.21.03-.37.1-.47.2-.1.11-.15.24-.15.41v.06c0,.11.03.21.08.31s.14.18.26.25c.12.06.29.09.5.09h0Z"/>
          <path class="cls-7" d="M48.42,103c.47,0,.86.09,1.18.28s.55.46.71.81.24.76.24,1.24-.08.9-.24,1.24-.4.62-.71.81-.71.29-1.18.29h-1.77v-4.66h1.77ZM47.08,107.26h1.34c.38,0,.7-.08.95-.23s.44-.38.56-.67.18-.63.18-1.04-.06-.74-.18-1.02c-.12-.29-.31-.51-.56-.66s-.57-.23-.95-.23h-1.34v3.86h0Z"/>
          <path class="cls-7" d="M51.83,104.13v1.89c0,.43.08.76.23,1s.42.35.8.35c.28,0,.53-.07.74-.21.22-.14.39-.33.51-.56.12-.24.19-.5.19-.79v-1.68h.43v3.53h-.43v-.8c-.08.16-.19.3-.33.44-.13.14-.3.25-.49.34s-.41.13-.65.13c-.35,0-.63-.07-.84-.21s-.36-.34-.46-.6c-.09-.26-.14-.57-.14-.92v-1.91h.44Z"/>
          <path class="cls-7" d="M56.98,107.74c-.32,0-.57-.05-.76-.15s-.32-.23-.4-.39c-.08-.16-.12-.32-.12-.5v-.08c0-.13.03-.26.08-.4s.15-.26.29-.37.35-.18.62-.21l.93-.11c.21-.02.36-.05.45-.09.09-.04.14-.11.14-.21,0-.25-.08-.44-.25-.58s-.43-.21-.78-.21c-.18,0-.34.02-.47.06s-.25.1-.34.18-.16.18-.22.29l-.41-.13c.06-.14.13-.26.23-.36s.21-.19.34-.25.27-.11.43-.14c.15-.03.31-.05.48-.05.34,0,.62.06.84.16.21.1.37.26.47.48s.15.5.15.86v2.12h-.43v-.58c-.06.12-.15.23-.27.33s-.27.18-.44.24-.36.09-.55.09h-.01ZM56.96,107.34c.3,0,.54-.05.73-.16s.33-.24.41-.39c.09-.15.13-.3.14-.44v-.61s-.11.08-.21.11-.23.04-.4.06l-.9.11c-.21.03-.37.1-.47.2-.1.11-.15.24-.15.41v.06c0,.11.03.21.08.31s.14.18.26.25c.12.06.29.09.5.09h0Z"/>
          <path class="cls-7" d="M61.52,104.54c-.32,0-.58.06-.78.19-.2.13-.34.3-.43.53-.09.23-.13.48-.13.76v1.67h-.43v-3.53h.43v.69c.09-.16.2-.29.32-.4s.26-.19.43-.24c.16-.05.36-.08.59-.08h.88l.08-1.44h.34v1.44h.97v.4h-.97v1.64c0,.43.08.73.24.9s.41.25.76.23c.03,0,.07,0,.1-.01.03,0,.06,0,.1-.01l.08.39s-.07,0-.1.01c-.04,0-.07,0-.11.01h-.11c-.46.01-.81-.1-1.03-.35-.23-.25-.34-.64-.34-1.17v-1.66h-.86l-.03.03Z"/>
          <path class="cls-7" d="M67.69,106.05h-2.85c0,.41.11.72.31.95.2.23.51.34.94.34.19,0,.36-.02.49-.07.13-.04.25-.11.34-.19s.17-.17.24-.26l.38.21c-.09.14-.2.26-.33.36-.13.11-.28.19-.47.25-.18.06-.4.09-.66.09-.4,0-.72-.08-.97-.23s-.43-.37-.55-.64-.18-.6-.18-.97.06-.69.17-.97c.11-.28.29-.49.54-.65.24-.15.57-.23.97-.23s.69.08.93.23.41.37.52.64c.11.28.17.6.17.97v.17ZM64.84,105.68h2.4c0-.37-.1-.67-.29-.89s-.48-.33-.88-.33c-.42,0-.72.11-.91.33s-.29.52-.32.9h0Z"/>
        </g>
        <g>
          <path class="cls-7" d="M15.6,114.94l-.21.3-.81-.55v.98h-.37v-.98l-.82.55-.21-.3.87-.6-.87-.59.21-.31.81.55v-.98h.37v.99l.81-.56.21.31-.87.59.87.6h.01Z"/>
          <path class="cls-7" d="M19.13,114.94l-.21.3-.81-.55v.98h-.37v-.98l-.82.55-.21-.3.87-.6-.87-.59.21-.31.81.55v-.98h.37v.99l.81-.56.21.31-.87.59.87.6h.01Z"/>
          <path class="cls-7" d="M22.67,114.94l-.21.3-.81-.55v.98h-.37v-.98l-.82.55-.21-.3.87-.6-.87-.59.21-.31.81.55v-.98h.37v.99l.81-.56.21.31-.87.59.87.6h.01Z"/>
          <path class="cls-7" d="M26.21,114.94l-.21.3-.81-.55v.98h-.37v-.98l-.82.55-.21-.3.87-.6-.87-.59.21-.31.81.55v-.98h.37v.99l.81-.56.21.31-.87.59.87.6h.01Z"/>
          <path class="cls-7" d="M31.87,114.94l-.21.3-.81-.55v.98h-.37v-.98l-.82.55-.21-.3.87-.6-.87-.59.21-.31.81.55v-.98h.37v.99l.81-.56.21.31-.87.59.87.6h.01Z"/>
          <path class="cls-7" d="M35.41,114.94l-.21.3-.81-.55v.98h-.37v-.98l-.82.55-.21-.3.87-.6-.87-.59.21-.31.81.55v-.98h.37v.99l.81-.56.21.31-.87.59.87.6h.01Z"/>
          <path class="cls-7" d="M38.95,114.94l-.21.3-.81-.55v.98h-.37v-.98l-.82.55-.21-.3.87-.6-.87-.59.21-.31.81.55v-.98h.37v.99l.81-.56.21.31-.87.59.87.6h.01Z"/>
          <path class="cls-7" d="M42.49,114.94l-.21.3-.81-.55v.98h-.37v-.98l-.82.55-.21-.3.87-.6-.87-.59.21-.31.81.55v-.98h.37v.99l.81-.56.21.31-.87.59.87.6h.01Z"/>
          <path class="cls-7" d="M48.15,114.94l-.21.3-.81-.55v.98h-.37v-.98l-.82.55-.21-.3.87-.6-.87-.59.21-.31.81.55v-.98h.37v.99l.81-.56.21.31-.87.59.87.6h.01Z"/>
          <path class="cls-7" d="M51.69,114.94l-.21.3-.81-.55v.98h-.37v-.98l-.82.55-.21-.3.87-.6-.87-.59.21-.31.81.55v-.98h.37v.99l.81-.56.21.31-.87.59.87.6h.01Z"/>
          <path class="cls-7" d="M55.23,114.94l-.21.3-.81-.55v.98h-.37v-.98l-.82.55-.21-.3.87-.6-.87-.59.21-.31.81.55v-.98h.37v.99l.81-.56.21.31-.87.59.87.6h.01Z"/>
          <path class="cls-7" d="M58.77,114.94l-.21.3-.81-.55v.98h-.37v-.98l-.82.55-.21-.3.87-.6-.87-.59.21-.31.81.55v-.98h.37v.99l.81-.56.21.31-.87.59.87.6h.01Z"/>
          <path class="cls-7" d="M63.04,118.14h-.43v-4.17l-.71.69-.27-.3.94-.88h.47v4.66h0Z"/>
          <path class="cls-7" d="M63.76,118.14c0-.17.03-.33.09-.49.06-.16.15-.31.27-.46s.28-.3.46-.45c.19-.15.41-.3.66-.46l.7-.44c.19-.12.34-.23.44-.34.11-.11.19-.23.24-.35.05-.13.07-.28.07-.45,0-.15-.04-.29-.13-.44s-.22-.27-.39-.36c-.17-.1-.39-.15-.64-.15-.23,0-.42.03-.57.08s-.27.13-.36.22c-.09.09-.15.18-.19.27l-.41-.13c.04-.11.1-.21.18-.31s.18-.19.31-.27.27-.14.45-.19.37-.07.6-.07c.26,0,.5.04.7.12s.37.18.51.31c.13.13.24.27.3.43.07.16.1.32.1.48,0,.22-.03.41-.09.57-.06.17-.17.32-.32.47s-.36.3-.61.47l-.72.46c-.17.1-.33.21-.48.33s-.28.24-.38.36-.18.26-.23.39h2.76v.4h-3.32Z"/>
          <path class="cls-7" d="M69.26,115.47h.07c.39,0,.68-.07.88-.22s.29-.35.29-.59-.1-.44-.3-.62c-.2-.17-.49-.26-.87-.26-.28,0-.52.06-.7.17-.19.11-.31.25-.39.4l-.42-.14c.07-.16.17-.3.3-.42.13-.13.3-.23.51-.3.2-.08.44-.11.7-.11.35,0,.64.06.88.17s.42.26.54.45c.12.19.18.4.18.62s-.06.43-.18.61c-.12.17-.29.31-.52.4.27.1.48.25.62.44.14.2.22.43.22.71s-.07.51-.2.73-.33.39-.59.52-.58.19-.97.19c-.28,0-.53-.04-.74-.11s-.39-.18-.53-.31-.25-.28-.33-.43l.41-.14c.09.16.23.29.43.41s.45.17.75.17.53-.05.72-.14c.2-.09.34-.22.45-.37.1-.16.15-.33.15-.51,0-.29-.11-.52-.33-.7-.22-.17-.55-.25-.99-.25h-.07v-.37h.03Z"/>
          <path class="cls-7" d="M74.33,118.14h-.43v-1.27h-2.43v-.32l2.29-3.07h.57v3h.53v.39h-.53v1.27h0ZM72,116.48h1.9v-2.55l-1.9,2.55Z"/>
        </g>
      </g>
    </g>
  </g>
</svg>