<?xml version="1.0" encoding="UTF-8"?>
<svg id="Capa_2" data-name="Capa 2" xmlns="http://www.w3.org/2000/svg" xmlns:xlink="http://www.w3.org/1999/xlink" viewBox="0 0 215.02 215.02">
  <defs>
    <style>
      .cls-1 {
        fill: url(#Degradado_sin_nombre_68-2);
      }

      .cls-2 {
        fill: url(#Degradado_sin_nombre_68-3);
      }

      .cls-3 {
        fill: url(#Degradado_sin_nombre_68-6);
      }

      .cls-4 {
        fill: url(#Degradado_sin_nombre_68-7);
      }

      .cls-5 {
        fill: url(#Degradado_sin_nombre_68-4);
      }

      .cls-6 {
        fill: url(#Degradado_sin_nombre_68-5);
      }

      .cls-7 {
        fill: url(#Degradado_sin_nombre_68-8);
      }

      .cls-8 {
        fill: url(#Degradado_sin_nombre_68-9);
      }

      .cls-9 {
        fill: url(#Degradado_sin_nombre_68);
      }

      .cls-10 {
        fill: url(#Degradado_sin_nombre_68-20);
      }

      .cls-11 {
        fill: url(#Degradado_sin_nombre_68-10);
      }

      .cls-12 {
        fill: url(#Degradado_sin_nombre_68-11);
      }

      .cls-13 {
        fill: url(#Degradado_sin_nombre_68-12);
      }

      .cls-14 {
        fill: url(#Degradado_sin_nombre_68-13);
      }

      .cls-15 {
        fill: url(#Degradado_sin_nombre_68-14);
      }

      .cls-16 {
        fill: url(#Degradado_sin_nombre_68-15);
      }

      .cls-17 {
        fill: url(#Degradado_sin_nombre_68-19);
      }

      .cls-18 {
        fill: url(#Degradado_sin_nombre_68-18);
      }

      .cls-19 {
        fill: url(#Degradado_sin_nombre_68-16);
      }

      .cls-20 {
        fill: url(#Degradado_sin_nombre_68-17);
      }
    </style>
    <linearGradient id="Degradado_sin_nombre_68" data-name="Degradado sin nombre 68" x1="4.35" y1="612.77" x2="210.66" y2="612.77" gradientTransform="translate(0 720.29) scale(1 -1)" gradientUnits="userSpaceOnUse">
      <stop offset="0" stop-color="#1b4497"/>
      <stop offset="0" stop-color="#1b4497"/>
      <stop offset="1" stop-color="#0c192e"/>
    </linearGradient>
    <linearGradient id="Degradado_sin_nombre_68-2" data-name="Degradado sin nombre 68" x1="5.57" y1="612.78" x2="209.46" y2="612.78" xlink:href="#Degradado_sin_nombre_68"/>
    <linearGradient id="Degradado_sin_nombre_68-3" data-name="Degradado sin nombre 68" x1="20.99" y1="612.78" x2="194.05" y2="612.78" xlink:href="#Degradado_sin_nombre_68"/>
    <linearGradient id="Degradado_sin_nombre_68-4" data-name="Degradado sin nombre 68" x1="0" y1="612.78" x2="215.02" y2="612.78" xlink:href="#Degradado_sin_nombre_68"/>
    <linearGradient id="Degradado_sin_nombre_68-5" data-name="Degradado sin nombre 68" x1="17.91" y1="612.78" x2="197.11" y2="612.78" xlink:href="#Degradado_sin_nombre_68"/>
    <linearGradient id="Degradado_sin_nombre_68-6" data-name="Degradado sin nombre 68" x1="7.41" y1="612.77" x2="207.62" y2="612.77" xlink:href="#Degradado_sin_nombre_68"/>
    <linearGradient id="Degradado_sin_nombre_68-7" data-name="Degradado sin nombre 68" x1="2.97" y1="612.78" x2="212.04" y2="612.78" xlink:href="#Degradado_sin_nombre_68"/>
    <linearGradient id="Degradado_sin_nombre_68-8" data-name="Degradado sin nombre 68" x1="26.88" y1="612.78" x2="188.15" y2="612.78" xlink:href="#Degradado_sin_nombre_68"/>
    <linearGradient id="Degradado_sin_nombre_68-9" data-name="Degradado sin nombre 68" x1=".65" y1="612.78" x2="214.38" y2="612.78" xlink:href="#Degradado_sin_nombre_68"/>
    <linearGradient id="Degradado_sin_nombre_68-10" data-name="Degradado sin nombre 68" x1="13.07" y1="612.77" x2="201.95" y2="612.77" xlink:href="#Degradado_sin_nombre_68"/>
    <linearGradient id="Degradado_sin_nombre_68-11" data-name="Degradado sin nombre 68" x1="11.2" y1="612.78" x2="203.81" y2="612.78" xlink:href="#Degradado_sin_nombre_68"/>
    <linearGradient id="Degradado_sin_nombre_68-12" data-name="Degradado sin nombre 68" x1="1.17" y1="612.78" x2="213.84" y2="612.78" xlink:href="#Degradado_sin_nombre_68"/>
    <linearGradient id="Degradado_sin_nombre_68-13" data-name="Degradado sin nombre 68" x1="29.6" y1="612.77" x2="185.42" y2="612.77" xlink:href="#Degradado_sin_nombre_68"/>
    <linearGradient id="Degradado_sin_nombre_68-14" data-name="Degradado sin nombre 68" x1="2.1" y1="612.77" x2="212.92" y2="612.77" xlink:href="#Degradado_sin_nombre_68"/>
    <linearGradient id="Degradado_sin_nombre_68-15" data-name="Degradado sin nombre 68" x1="8.95" y1="612.78" x2="206.07" y2="612.78" xlink:href="#Degradado_sin_nombre_68"/>
    <linearGradient id="Degradado_sin_nombre_68-16" data-name="Degradado sin nombre 68" x1="15.74" y1="612.78" x2="199.28" y2="612.78" xlink:href="#Degradado_sin_nombre_68"/>
    <linearGradient id="Degradado_sin_nombre_68-17" data-name="Degradado sin nombre 68" x1=".19" y1="612.77" x2="214.85" y2="612.77" xlink:href="#Degradado_sin_nombre_68"/>
    <linearGradient id="Degradado_sin_nombre_68-18" data-name="Degradado sin nombre 68" x1="23.44" y1="612.78" x2="191.59" y2="612.78" xlink:href="#Degradado_sin_nombre_68"/>
    <linearGradient id="Degradado_sin_nombre_68-19" data-name="Degradado sin nombre 68" x1="5.57" y1="612.78" x2="209.46" y2="612.78" xlink:href="#Degradado_sin_nombre_68"/>
    <linearGradient id="Degradado_sin_nombre_68-20" data-name="Degradado sin nombre 68" x1="20.99" y1="612.78" x2="194.05" y2="612.78" xlink:href="#Degradado_sin_nombre_68"/>
  </defs>
  <g id="object">
    <g>
      <path class="cls-9" d="M77.1,210.67l-.14-.25L4.35,77.11,137.91,4.37l.14.25,72.61,133.31-133.56,72.74h0ZM5.13,77.33l72.2,132.57,132.57-72.2L137.7,5.13S5.13,77.33,5.13,77.33Z"/>
      <path class="cls-1" d="M141.77,209.45L5.57,141.77l.13-.25L73.26,5.58l136.2,67.68-.13.25-67.56,135.94h0ZM6.33,141.52l135.18,67.18,67.18-135.18L73.51,6.34,6.33,141.52h0Z"/>
      <path class="cls-2" d="M43.66,194.05l-.04-.28L20.99,43.66l150.39-22.68.04.28,22.63,150.11-150.39,22.68h0ZM21.62,44.14l22.51,149.26,149.26-22.51-22.51-149.26L21.61,44.14h.01Z"/>
      <path class="cls-5" d="M104.84,215.02l-.2-.21L0,104.83,110.18,0l.2.21,104.64,109.98-110.18,104.83h0ZM.8,104.86l104.05,109.36,109.36-104.05L110.16.81.8,104.86Z"/>
      <path class="cls-6" d="M166.98,197.11l-149.07-30.13L48.04,17.91l149.07,30.13-30.13,149.07ZM18.58,166.55l147.96,29.9,29.9-147.96L48.48,18.59l-29.9,147.96Z"/>
      <path class="cls-3" d="M68.23,207.63l-.11-.26L7.41,68.24,146.8,7.41l.11.26,60.71,139.13-139.39,60.83h0ZM8.15,68.53l60.37,138.35,138.35-60.37L146.5,8.16,8.15,68.53Z"/>
      <path class="cls-4" d="M132.75,212.05l-.24-.15L2.97,132.75,82.26,2.97l.24.15,129.54,79.15-79.29,129.78h0ZM3.75,132.57l128.81,78.7,78.7-128.81L82.45,3.76,3.75,132.57Z"/>
      <path class="cls-7" d="M36.36,188.15L26.88,36.36l151.79-9.48,9.48,151.79-151.79,9.48ZM27.47,36.89l9.41,150.66,150.66-9.41-9.41-150.66L27.47,36.89Z"/>
      <path class="cls-8" d="M95.48,214.38l-.18-.22L.65,95.48l.22-.18L119.55.65l.18.22,94.65,118.68-.22.18-118.68,94.65h0ZM1.44,95.57l94.12,118.01,118.01-94.12L119.45,1.45,1.44,95.57h0Z"/>
      <path class="cls-11" d="M158.95,201.96l-.27-.08L13.07,158.96l.08-.27L56.07,13.08l.27.08,145.61,42.92-.08.27-42.92,145.61h0ZM13.77,158.57l144.79,42.68,42.68-144.79L56.45,13.78,13.77,158.57h0Z"/>
      <path class="cls-12" d="M59.65,203.82l-.09-.27L11.2,59.66l.27-.09L155.36,11.21l.09.27,48.36,143.89-.27.09-143.89,48.36h0ZM11.92,60.01l48.09,143.09,143.09-48.09L155.01,11.92,11.92,60.01Z"/>
      <path class="cls-13" d="M123.54,213.85L1.17,123.55,91.47,1.18l122.37,90.3-90.3,122.37h0ZM1.96,123.43l121.46,89.63,89.63-121.46L91.59,1.97,1.96,123.43Z"/>
      <path class="cls-14" d="M181.64,185.43l-152.04-3.78v-.28l3.78-151.76,152.04,3.78v.28l-3.78,151.76h0ZM30.18,181.09l150.91,3.75,3.75-150.91-150.91-3.75-3.75,150.91Z"/>
      <path class="cls-15" d="M86.21,212.93L2.1,86.22,128.81,2.11l84.11,126.71-126.71,84.11ZM2.88,86.37l83.48,125.77,125.77-83.48L128.65,2.89,2.88,86.37Z"/>
      <path class="cls-16" d="M150.52,206.08l-.26-.1L8.95,150.53,64.5,8.95l.26.1,141.31,55.45-55.55,141.58ZM9.68,150.21l140.52,55.14,55.14-140.52L64.82,9.69,9.68,150.21Z"/>
      <path class="cls-19" d="M51.44,199.28l-.07-.28L15.74,51.44,163.58,15.74l.07.28,35.63,147.56-147.84,35.7ZM16.43,51.86l35.43,146.74,146.74-35.43L163.17,16.43S16.43,51.86,16.43,51.86Z"/>
      <path class="cls-20" d="M114.22,214.85l-.21-.19L.19,114.22l.19-.21L100.82.19l.21.19,113.82,100.44-.19.21-100.44,113.82h0ZM.98,114.17l113.19,99.88,99.88-113.19L100.86.98.98,114.17h0Z"/>
      <path class="cls-18" d="M174.57,191.59l-151.13-17.02.03-.28L40.46,23.44l151.13,17.02-.03.28-16.99,150.85ZM24.06,174.07l150,16.89,16.89-150L40.95,24.07l-16.89,150Z"/>
      <path class="cls-9" d="M77.1,210.67l-.14-.25L4.35,77.11,137.91,4.37l.14.25,72.61,133.31-133.56,72.74h0ZM5.13,77.33l72.2,132.57,132.57-72.2L137.7,5.13S5.13,77.33,5.13,77.33Z"/>
      <path class="cls-17" d="M141.77,209.45L5.57,141.77l.13-.25L73.26,5.58l136.2,67.68-.13.25-67.56,135.94h0ZM6.33,141.52l135.18,67.18,67.18-135.18L73.51,6.34,6.33,141.52h0Z"/>
      <path class="cls-10" d="M43.66,194.05l-.04-.28L20.99,43.66l150.39-22.68.04.28,22.63,150.11-150.39,22.68h0ZM21.62,44.14l22.51,149.26,149.26-22.51-22.51-149.26L21.61,44.14h.01Z"/>
    </g>
  </g>
</svg>