<?xml version="1.0" encoding="UTF-8"?>
<svg id="Capa_2" data-name="Capa 2" xmlns="http://www.w3.org/2000/svg" xmlns:xlink="http://www.w3.org/1999/xlink" viewBox="0 0 227.97 208.83">
  <defs>
    <style>
      .cls-1 {
        fill: url(#linear-gradient-8);
      }

      .cls-2 {
        fill: url(#linear-gradient-7);
      }

      .cls-3 {
        fill: url(#linear-gradient-5);
      }

      .cls-4 {
        fill: url(#linear-gradient-6);
      }

      .cls-5 {
        fill: url(#linear-gradient-9);
      }

      .cls-6 {
        fill: url(#linear-gradient-4);
      }

      .cls-7 {
        fill: url(#linear-gradient-3);
      }

      .cls-8 {
        fill: url(#linear-gradient-2);
      }

      .cls-9 {
        fill: url(#linear-gradient);
      }

      .cls-10 {
        fill: url(#linear-gradient-10);
      }

      .cls-11 {
        fill: url(#linear-gradient-11);
      }

      .cls-12 {
        fill: url(#linear-gradient-12);
      }

      .cls-13 {
        fill: url(#linear-gradient-13);
      }

      .cls-14 {
        fill: url(#linear-gradient-19);
      }

      .cls-15 {
        fill: url(#linear-gradient-14);
      }

      .cls-16 {
        fill: url(#linear-gradient-21);
      }

      .cls-17 {
        fill: url(#linear-gradient-20);
      }

      .cls-18 {
        fill: url(#linear-gradient-15);
      }

      .cls-19 {
        fill: url(#linear-gradient-16);
      }

      .cls-20 {
        fill: url(#linear-gradient-17);
      }

      .cls-21 {
        fill: url(#linear-gradient-18);
      }
    </style>
    <linearGradient id="linear-gradient" x1="83.4" y1="-403.05" x2="138.41" y2="-403.05" gradientTransform="translate(0 -295.68) scale(1 -1)" gradientUnits="userSpaceOnUse">
      <stop offset="0" stop-color="#1b4497"/>
      <stop offset="0" stop-color="#1b4497"/>
      <stop offset="1" stop-color="#0c192e"/>
    </linearGradient>
    <linearGradient id="linear-gradient-2" x1="82.4" y1="-404.48" x2="140.2" y2="-404.48" xlink:href="#linear-gradient"/>
    <linearGradient id="linear-gradient-3" x1="81.65" y1="-406.1" x2="142.02" y2="-406.1" xlink:href="#linear-gradient"/>
    <linearGradient id="linear-gradient-4" x1="81.13" y1="-407.88" x2="143.8" y2="-407.88" xlink:href="#linear-gradient"/>
    <linearGradient id="linear-gradient-5" x1="80.92" y1="-409.88" x2="145.54" y2="-409.88" xlink:href="#linear-gradient"/>
    <linearGradient id="linear-gradient-6" x1="80.48" y1="-410.75" x2="147.27" y2="-410.75" xlink:href="#linear-gradient"/>
    <linearGradient id="linear-gradient-7" x1="76.73" y1="-411.26" x2="148.87" y2="-411.26" xlink:href="#linear-gradient"/>
    <linearGradient id="linear-gradient-8" x1="72.75" y1="-411.69" x2="150.4" y2="-411.69" xlink:href="#linear-gradient"/>
    <linearGradient id="linear-gradient-9" x1="68.53" y1="-412.03" x2="151.88" y2="-412.03" xlink:href="#linear-gradient"/>
    <linearGradient id="linear-gradient-10" x1="64.05" y1="-412.26" x2="153.16" y2="-412.26" xlink:href="#linear-gradient"/>
    <linearGradient id="linear-gradient-11" x1="59.34" y1="-412.37" x2="154.4" y2="-412.37" xlink:href="#linear-gradient"/>
    <linearGradient id="linear-gradient-12" x1="54.37" y1="-412.33" x2="155.43" y2="-412.33" xlink:href="#linear-gradient"/>
    <linearGradient id="linear-gradient-13" x1="49.14" y1="-412.1" x2="156.31" y2="-412.1" xlink:href="#linear-gradient"/>
    <linearGradient id="linear-gradient-14" x1="43.65" y1="-411.65" x2="157.07" y2="-411.65" xlink:href="#linear-gradient"/>
    <linearGradient id="linear-gradient-15" x1="37.91" y1="-410.96" x2="157.64" y2="-410.96" xlink:href="#linear-gradient"/>
    <linearGradient id="linear-gradient-16" x1="31.95" y1="-410" x2="159.46" y2="-410" xlink:href="#linear-gradient"/>
    <linearGradient id="linear-gradient-17" x1="25.75" y1="-408.75" x2="170.25" y2="-408.75" xlink:href="#linear-gradient"/>
    <linearGradient id="linear-gradient-18" x1="19.4" y1="-407.14" x2="182.43" y2="-407.14" xlink:href="#linear-gradient"/>
    <linearGradient id="linear-gradient-19" x1="12.95" y1="-405.19" x2="196.06" y2="-405.19" xlink:href="#linear-gradient"/>
    <linearGradient id="linear-gradient-20" x1="6.42" y1="-402.81" x2="211.27" y2="-402.81" xlink:href="#linear-gradient"/>
    <linearGradient id="linear-gradient-21" x1="0" y1="-399.99" x2="227.97" y2="-399.99" xlink:href="#linear-gradient"/>
  </defs>
  <g id="object">
    <g>
      <path class="cls-9" d="M88.26,132.16c-1.38,0-2.57-.36-3.44-1.09-1.59-1.33-1.85-3.72-.71-6.53l12.36-30.54c1.69-4.18,6.16-8.47,10.86-10.42,2.67-1.11,5.1-1.31,6.85-.57l21.74,9.18c1.49.63,2.34,1.84,2.48,3.5.31,3.9-3.41,9.31-8.65,12.6l-34.1,21.36c-2.65,1.66-5.25,2.51-7.39,2.51h0ZM111.8,83.36c-1.23,0-2.66.32-4.18.95-4.52,1.88-8.81,5.98-10.43,9.98l-12.36,30.54c-1.02,2.52-.85,4.52.48,5.63,1.95,1.64,5.84,1.06,9.9-1.49l34.1-21.36c5.71-3.58,8.53-8.78,8.28-11.87-.11-1.37-.78-2.32-2-2.84l-21.74-9.18c-.6-.25-1.3-.38-2.07-.38l.02.02Z"/>
      <path class="cls-8" d="M87.49,135.9c-1.3,0-2.44-.32-3.33-.97-1.77-1.3-2.22-3.66-1.25-6.66l10.72-33.16c2.48-7.67,12.67-14.91,18.48-13.13l24.95,7.63c1.72.53,2.78,1.74,3.07,3.5.66,4.05-2.93,10.03-8.36,13.92l-35.67,25.53c-3.06,2.19-6.13,3.34-8.61,3.34h0ZM110.17,82.49c-5.52,0-13.69,6.38-15.79,12.86l-10.72,33.16c-.86,2.65-.52,4.7.96,5.78,2.28,1.66,6.7.71,11.01-2.38l35.67-25.53c5.93-4.24,8.57-9.94,8.04-13.15-.24-1.47-1.09-2.44-2.52-2.87l-24.95-7.63c-.53-.16-1.1-.24-1.71-.24h.01Z"/>
      <path class="cls-7" d="M86.96,139.86c-1.21,0-2.28-.27-3.16-.82-1.95-1.23-2.6-3.63-1.84-6.76l8.65-35.75c2-8.25,12.54-16.77,19.12-15.44l28.36,5.71c1.98.4,3.27,1.6,3.74,3.49,1.05,4.25-2.29,10.66-7.93,15.24l-37.01,30.05c-3.43,2.78-7.05,4.3-9.93,4.3v-.02ZM108.3,81.73c-6.17,0-15.17,7.74-16.93,14.98l-8.65,35.75c-.67,2.77-.14,4.87,1.5,5.91,2.23,1.41,6.85.89,12.17-3.43l37.01-30.04c6.07-4.93,8.48-11.12,7.66-14.43-.39-1.56-1.47-2.57-3.12-2.9l-28.36-5.71c-.41-.08-.84-.12-1.28-.12h0Z"/>
      <path class="cls-6" d="M86.79,144.08c-1.12,0-2.14-.23-3.01-.69-2.13-1.15-3.02-3.57-2.5-6.81l6.12-38.29c1.41-8.83,12.23-18.71,19.62-17.93l31.94,3.39c2.27.24,3.82,1.43,4.49,3.45,1.44,4.36-1.65,11.32-7.35,16.54l-38.06,34.9c-3.81,3.49-7.97,5.44-11.26,5.44h.01ZM106.18,81.11c-6.9,0-16.72,9.29-18,17.31l-6.12,38.29c-.46,2.89.28,5.02,2.09,5.99,2.6,1.4,7.74.51,13.35-4.64l38.06-34.9c6.14-5.63,8.26-12.3,7.13-15.72-.56-1.7-1.88-2.7-3.82-2.91l-31.94-3.39c-.25-.03-.5-.04-.76-.04h.01Z"/>
      <path class="cls-3" d="M87,148.53c-1.02,0-1.97-.18-2.81-.56-2.33-1.05-3.48-3.47-3.23-6.82l3.06-40.71c.71-9.38,11.68-20.75,19.94-20.58l35.68.62c2.6.05,4.45,1.21,5.34,3.37,1.85,4.46-.93,11.96-6.61,17.83l-38.75,40.09c-4.16,4.3-8.88,6.77-12.63,6.77h0ZM103.8,80.65c-7.73,0-18.34,11.05-19,19.85l-3.06,40.71c-.23,3,.76,5.14,2.76,6.04,3.58,1.61,9.56-.87,14.55-6.03l38.75-40.09c6.19-6.41,7.93-13.39,6.45-16.98-.76-1.85-2.36-2.84-4.62-2.88l-35.68-.62h-.15Z"/>
      <path class="cls-4" d="M87.64,153.18c-.91,0-1.77-.14-2.56-.43-2.56-.93-3.99-3.33-4.04-6.78l-.55-42.97c-.13-9.89,10.92-22.78,20.04-23.39l39.56-2.62.03.39-.03-.39c2.92-.19,5.16.96,6.3,3.24,2.31,4.61-.03,12.45-5.7,19.08l-39.01,45.59c-4.46,5.22-9.78,8.28-14.04,8.28ZM140.71,77.75c-.19,0-.39,0-.59.02l-39.56,2.62c-8.6.57-19.42,13.24-19.3,22.59l.55,42.97c.04,3.14,1.26,5.23,3.52,6.05,4.14,1.5,10.61-1.63,15.74-7.62l39.01-45.59c6.09-7.12,7.43-14.55,5.59-18.21-.93-1.86-2.64-2.83-4.96-2.83h0Z"/>
      <path class="cls-2" d="M88.67,157.98c-.75,0-1.47-.09-2.15-.28-2.81-.78-4.56-3.15-4.94-6.68l-4.77-45.01c-1.1-10.35,9.86-24.88,19.88-26.34l43.53-6.38c3.31-.49,5.94.6,7.39,3.05,2.77,4.67.87,13-4.61,20.27l-38.76,51.39c-4.65,6.16-10.73,9.98-15.57,9.98h0ZM140.28,73.67l.06.39-43.53,6.38c-9.48,1.39-20.25,15.68-19.21,25.48l4.77,45.01c.34,3.23,1.85,5.3,4.36,6,4.76,1.32,11.7-2.55,16.88-9.41l38.76-51.39c5.3-7.02,7.17-15,4.57-19.39-1.3-2.19-3.58-3.12-6.6-2.67l-.06-.39h0Z"/>
      <path class="cls-1" d="M90.33,162.92c-.58,0-1.14-.05-1.69-.16-3.09-.6-5.21-2.91-5.95-6.5l-9.64-46.76c-2.22-10.75,8.49-26.98,19.42-29.43l47.57-10.68c3.74-.84,6.8.15,8.62,2.78,3.24,4.7,1.87,13.5-3.34,21.4l-37.92,57.44c-4.79,7.26-11.56,11.91-17.06,11.91h0ZM140.12,69.77l.09.39-47.57,10.68c-10.37,2.33-20.92,18.31-18.82,28.5l9.64,46.76c.68,3.31,2.52,5.35,5.33,5.89,5.44,1.05,12.82-3.65,17.94-11.41l37.92-57.44c5.04-7.64,6.42-16.07,3.35-20.51-1.65-2.39-4.34-3.24-7.8-2.46l-.09-.39h.01Z"/>
      <path class="cls-5" d="M92.58,167.96c-.36,0-.72-.02-1.07-.06-3.42-.37-5.94-2.58-7.09-6.25l-15.2-48.15c-1.55-4.91-.46-11.48,3-18.02,3.83-7.26,9.82-12.85,15.63-14.6l51.62-15.57.11.38-.11-.38c4.2-1.27,7.76-.41,10,2.41,3.81,4.79,3.05,13.81-1.88,22.44l-36.42,63.72c-4.84,8.46-12.33,14.07-18.59,14.08h0ZM143.05,65.54c-1.05,0-2.18.18-3.36.53l-51.62,15.57c-5.61,1.69-11.42,7.14-15.16,14.21-3.31,6.26-4.41,12.77-2.94,17.42l15.2,48.15c1.07,3.39,3.29,5.36,6.42,5.7,6.16.66,13.92-4.94,18.88-13.63l36.42-63.72c4.7-8.23,5.5-17.09,1.95-21.56-1.41-1.77-3.41-2.68-5.79-2.68h0Z"/>
      <path class="cls-10" d="M95.46,173.04h-.23c-3.79-.08-6.77-2.16-8.39-5.88l-21.49-49.1c-2.11-4.81-1.64-11.54,1.27-18.47,3.49-8.3,9.69-14.98,16.17-17.44l55.62-21.06c4.69-1.78,8.79-1.1,11.54,1.92,4.36,4.77,4.27,14.17-.22,23.38l-34.14,70.16c-4.74,9.75-12.99,16.49-20.14,16.49h.01ZM138.56,61.47l.14.37-55.62,21.06c-6.29,2.38-12.31,8.9-15.72,17.01-2.83,6.72-3.29,13.23-1.27,17.84l21.49,49.1c1.52,3.47,4.18,5.34,7.69,5.41,6.91.13,14.98-6.46,19.64-16.04l34.14-70.16c4.34-8.93,4.48-17.97.34-22.5-2.52-2.76-6.31-3.37-10.68-1.71l-.14-.37h-.01Z"/>
      <path class="cls-11" d="M99.13,178.11c-3.84,0-7.03-1.9-9.05-5.4l-28.54-49.51c-2.71-4.7-2.92-11.57-.59-18.85,2.98-9.31,9.26-17.12,16.4-20.38l59.53-27.19.16.36-.16-.36c5.21-2.38,9.92-1.93,13.26,1.27,5.01,4.79,5.66,14.29,1.66,24.2l-30.99,76.7c-4.33,10.71-12.9,18.58-20.84,19.13-.28.02-.56.03-.84.03h0ZM143.13,56.07c-1.84,0-3.84.47-5.93,1.43l-59.53,27.19c-6.94,3.17-13.06,10.79-15.97,19.9-2.26,7.07-2.07,13.72.52,18.22l28.54,49.51c2.04,3.53,5.2,5.25,9.15,4.98,7.65-.53,15.94-8.2,20.16-18.64l30.99-76.7c3.82-9.46,3.23-18.83-1.47-23.33-1.77-1.7-3.98-2.55-6.46-2.55h0Z"/>
      <path class="cls-12" d="M103.6,183.08c-3.78,0-7.06-1.68-9.41-4.86l-36.38-49.3c-3.37-4.56-4.31-11.57-2.59-19.22,2.27-10.09,8.66-19.26,16.27-23.35l63.26-33.97c5.65-3.03,11.17-2.87,15.15.45,5.64,4.7,7.12,14.47,3.76,24.88l-26.88,83.27c-3.71,11.5-12.34,20.51-20.99,21.92-.75.12-1.48.18-2.2.18h0ZM134.93,52.73l.19.35-63.26,33.97c-7.42,3.99-13.66,12.95-15.88,22.82-1.67,7.43-.78,14.2,2.46,18.58l36.38,49.3c2.65,3.58,6.39,5.09,10.84,4.37,8.37-1.37,16.74-10.16,20.36-21.39l26.88-83.27c3.26-10.1,1.88-19.54-3.51-24.03-3.77-3.15-8.84-3.27-14.27-.36l-.19-.35h0Z"/>
      <path class="cls-13" d="M108.9,187.9c-3.69,0-7.02-1.46-9.64-4.27l-45.05-48.36c-4.1-4.41-5.84-11.55-4.77-19.6,1.46-10.92,7.65-21.23,15.78-26.28l66.73-41.43.21.34-.21-.34c6.17-3.83,12.45-4.05,17.23-.59,6.32,4.57,8.7,14.54,6.08,25.41l-21.69,89.79c-2.94,12.18-11.47,22.38-20.74,24.81-1.34.35-2.66.53-3.94.53h.01ZM132.38,48.63l-66.73,41.43c-7.94,4.93-13.99,15.02-15.42,25.71-1.04,7.81.62,14.72,4.56,18.96l45.05,48.36c3.32,3.56,7.87,4.81,12.8,3.52,9-2.36,17.3-12.33,20.18-24.23l21.69-89.79c2.55-10.55.28-20.2-5.78-24.58-4.5-3.26-10.46-3.03-16.35.62h0Z"/>
      <path class="cls-15" d="M115.13,192.47c-3.57,0-6.9-1.23-9.72-3.64l-54.55-46.58c-4.94-4.22-7.56-11.51-7.17-19.99.52-11.62,6.38-23.05,14.92-29.11l69.85-49.56.23.32-.23-.32c6.68-4.74,13.78-5.43,19.47-1.89,7.16,4.44,10.47,14.31,8.65,25.76l-15.31,96.14c-2.06,12.93-10.11,24.07-20.03,27.72-2.08.77-4.13,1.15-6.12,1.15h.01ZM140.11,40.26c-3.63,0-7.47,1.33-11.18,3.97l-69.85,49.56c-8.35,5.93-14.08,17.11-14.59,28.5-.37,8.24,2.14,15.3,6.9,19.36l54.54,46.58c4.17,3.56,9.51,4.39,15.05,2.35,9.66-3.56,17.51-14.45,19.52-27.11l15.31-96.14c1.77-11.12-1.4-20.69-8.29-24.96-2.27-1.41-4.79-2.11-7.42-2.11h0Z"/>
      <path class="cls-18" d="M122.31,196.69c-3.4,0-6.66-1-9.6-2.98l-64.89-43.84c-5.9-3.99-9.5-11.42-9.87-20.41-.51-12.19,4.87-24.67,13.7-31.77l72.52-58.38c7.15-5.76,15.12-7.02,21.88-3.47,7.96,4.18,12.36,14.11,11.48,25.92l-7.63,102.22c-1,13.33-8.55,25.62-18.79,30.58-2.95,1.43-5.92,2.14-8.79,2.14h-.01ZM124.4,39.62l.25.31-72.52,58.38c-8.64,6.96-13.9,19.17-13.4,31.13.37,8.73,3.84,15.94,9.53,19.78l64.89,43.84c5.18,3.5,11.43,3.78,17.6.79,10-4.84,17.38-16.87,18.35-29.93l7.63-102.22c.86-11.48-3.38-21.12-11.06-25.16-6.46-3.4-14.12-2.16-21.02,3.39l-.25-.31h0Z"/>
      <path class="cls-19" d="M130.5,200.48c-3.18,0-6.3-.77-9.24-2.32l-76.07-40.02c-7-3.68-11.72-11.27-12.93-20.82-1.61-12.63,3.15-26.06,12.12-34.23L119,35.22c7.56-6.88,16.46-8.85,24.41-5.39,8.85,3.84,14.44,13.75,14.6,25.86l1.45,107.89c.19,13.78-6.48,26.84-16.99,33.28-3.92,2.4-7.99,3.61-11.98,3.61h.01ZM119.26,35.52l.27.29L44.91,103.68c-8.79,8-13.45,21.16-11.87,33.54,1.18,9.29,5.75,16.66,12.52,20.22l76.07,40.02c6.37,3.35,13.63,2.9,20.43-1.27,10.27-6.3,16.79-19.09,16.61-32.6l-1.45-107.89c-.16-11.8-5.57-21.43-14.13-25.15-7.65-3.32-16.24-1.41-23.57,5.25l-.27-.29h.01Z"/>
      <path class="cls-20" d="M139.62,203.67c-2.87,0-5.73-.54-8.47-1.63l-88.07-34.99c-8.28-3.29-14.27-11.01-16.44-21.2-2.8-13.12,1.12-27.08,10.23-36.42L112.89,31.41c7.77-7.98,17.88-10.85,27.02-7.69,9.97,3.45,16.72,13.01,18.06,25.57l12.05,113.01c1.48,13.85-4.26,27.88-14.61,35.74-4.9,3.72-10.37,5.63-15.79,5.63h0ZM113.15,31.69l.28.28L37.42,109.99c-8.92,9.16-12.76,22.84-10.02,35.71,2.12,9.92,7.93,17.44,15.96,20.63l88.07,34.99c7.66,3.04,16.22,1.62,23.49-3.9,10.14-7.7,15.75-21.45,14.3-35.03l-12.05-113.01c-1.31-12.25-7.86-21.56-17.53-24.9-8.85-3.06-18.64-.26-26.2,7.49l-.28-.28h0Z"/>
      <path class="cls-21" d="M149.81,206.23c-2.45,0-4.92-.34-7.35-1.03l-100.87-28.61c-9.74-2.76-17.2-10.6-20.47-21.5-3.98-13.28-.9-27.97,8.03-38.34L105.74,27.96c7.98-9.26,19.07-13.14,29.65-10.4,11.07,2.87,19.26,12.22,21.9,25l24.28,117.4c2.89,13.99-1.58,28.51-11.67,37.89-5.9,5.48-12.95,8.37-20.1,8.37h0ZM106.04,28.23l.3.26L29.75,117.28c-8.76,10.16-11.78,24.57-7.88,37.59,3.19,10.64,10.45,18.28,19.93,20.97l100.87,28.61c9.25,2.62,18.98.02,26.69-7.16,9.89-9.2,14.27-23.43,11.43-37.15l-24.28-117.4c-2.58-12.48-10.55-21.6-21.33-24.4-10.29-2.67-21.07,1.12-28.85,10.15l-.3-.26h.01Z"/>
      <path class="cls-14" d="M160.99,208c-1.89,0-3.79-.17-5.71-.52l-114.43-20.75c-11.42-2.07-20.57-9.96-25.11-21.64-5.17-13.31-3.03-28.62,5.58-39.94L97.5,25.02l.31.24-.31-.24c8.05-10.58,20.08-15.64,32.19-13.53,12.3,2.14,22.09,11.15,26.2,24.11l38.25,120.88c4.36,13.77,1.21,28.97-8.22,39.68-6.77,7.69-15.63,11.84-24.94,11.84h0ZM124.29,11.81c-9.96,0-19.47,4.89-26.16,13.69L21.95,125.63c-8.45,11.11-10.55,26.12-5.47,39.17,4.44,11.42,13.37,19.13,24.52,21.15l114.43,20.75c11.05,2,21.95-2.03,29.91-11.07,9.24-10.5,12.33-25.41,8.06-38.92l-38.25-120.88c-4.01-12.68-13.57-21.49-25.58-23.57-1.76-.31-3.52-.46-5.27-.46h-.01Z"/>
      <path class="cls-17" d="M172.9,208.83c-1.07,0-2.13-.05-3.21-.14l-128.66-11.26c-13.13-1.15-24.51-9.2-30.44-21.54-6.45-13.42-5.36-28.83,2.89-41.22L88.1,22.68l.33.22-.33-.22c7.93-11.91,20.84-18.3,34.53-17.11,13.69,1.2,25.29,9.74,31.04,22.84l54.04,123.25c5.98,13.64,4.37,29-4.31,41.1-7.33,10.21-18.55,16.07-30.51,16.07h.01ZM119.38,6.23c-12.19,0-23.47,6.16-30.62,16.9L14.14,135.12c-8.1,12.16-9.16,27.28-2.84,40.44,5.81,12.08,16.94,19.97,29.79,21.09l128.67,11.26c12.85,1.12,25.19-4.71,33.01-15.6,8.51-11.87,10.09-26.94,4.23-40.32l-54.04-123.25c-5.63-12.84-16.99-21.2-30.38-22.37-1.07-.09-2.13-.14-3.19-.14h0Z"/>
      <path class="cls-16" d="M185.75,208.63H42.24c-15.25,0-28.9-7.88-36.52-21.09-7.62-13.2-7.62-28.97,0-42.17L77.46,21.09C85.08,7.89,98.75,0,113.99,0h0c15.25,0,28.9,7.88,36.52,21.09l71.75,124.28c7.62,13.2,7.62,28.97,0,42.17s-21.28,21.09-36.52,21.09h.01ZM77.82,21.29l.34.2L6.41,145.77c-7.48,12.96-7.48,28.43,0,41.38,7.48,12.96,20.88,20.69,35.84,20.69h143.51c14.96,0,28.36-7.74,35.84-20.69,7.48-12.96,7.48-28.43,0-41.38L149.85,21.49C142.37,8.53,128.97.8,114.01.8s-28.36,7.74-35.84,20.69l-.34-.2h-.01Z"/>
    </g>
  </g>
</svg>