<?xml version="1.0" encoding="UTF-8"?>
<svg id="Capa_2" data-name="Capa 2" xmlns="http://www.w3.org/2000/svg" viewBox="0 0 518.97 322.34">
  <defs>
    <style>
      .cls-1 {
        fill: #6aff00;
      }

      .cls-2 {
        fill: #002340;
      }

      .cls-3 {
        fill: #fff;
      }
    </style>
  </defs>
  <g id="Layer_1" data-name="Layer 1">
    <g>
      <rect class="cls-2" width="518.97" height="322.34" rx="39.53" ry="39.53"/>
      <g>
        <path class="cls-1" d="M110.8,173.52h0c-.76-.66-.87-1.7-.26-2.48,1.39-1.76,2.48-3.99,2.48-6.65s-1.1-4.89-2.48-6.65c-.61-.77-.5-1.81.26-2.48h0c.99-.86,2.62-.72,3.39.29,1.67,2.17,3.16,5.14,3.16,8.83s-1.49,6.66-3.16,8.83c-.77,1.01-2.41,1.15-3.39.29v.02Z"/>
        <path class="cls-1" d="M117.26,177.58h0c-.75-.65-.83-1.7-.19-2.44,2.1-2.42,4.26-6.05,4.26-10.74s-2.16-8.32-4.26-10.74c-.64-.74-.56-1.78.19-2.44h0c.89-.78,2.36-.7,3.15.16,2.24,2.46,5.25,6.89,5.25,13.01s-3.01,10.55-5.25,13.01c-.79.86-2.25.94-3.15.16v.02Z"/>
        <path class="cls-1" d="M123.75,181.59l-.02-.02c-.76-.66-.81-1.71-.13-2.43,2.42-2.54,6.09-7.59,6.09-14.74s-3.68-12.19-6.09-14.74c-.68-.72-.63-1.77.13-2.43l.02-.02c.84-.73,2.21-.69,2.99.09,2.5,2.51,7.22,8.4,7.22,17.09s-4.72,14.58-7.22,17.09c-.78.78-2.15.82-2.99.09v.02Z"/>
        <path class="cls-1" d="M104.26,169.35h0c-.68-.59-.86-1.51-.41-2.25.49-.81.79-1.71.79-2.69s-.3-1.88-.79-2.69c-.45-.74-.27-1.66.41-2.25h0c1.04-.91,2.79-.68,3.5.45.81,1.29,1.36,2.79,1.36,4.5s-.55,3.21-1.36,4.5c-.71,1.13-2.45,1.36-3.5.45v-.02Z"/>
      </g>
      <path class="cls-1" d="M81.72,145.38h-30.88c-4.63,0-8.39,4.26-8.39,9.5v19.02c0,5.24,3.76,9.5,8.39,9.5h30.88c4.63,0,8.39-4.26,8.39-9.5v-19.02c0-5.24-3.76-9.5-8.39-9.5ZM89.33,154.88v4.31h-14.48v-12.92h6.87c4.19,0,7.61,3.86,7.61,8.61h0ZM74.06,177.26h-15.57v-23.93h15.57v23.93ZM74.06,152.44h-15.57v-6.17h15.57v6.17ZM57.71,169.53h-14.47v-9.45h14.47v9.45ZM58.5,178.15h15.57v4.36h-15.57v-4.36ZM74.85,160.08h14.48v9.45h-14.48v-9.45ZM50.85,146.27h6.87v12.92h-14.47v-4.31c0-4.75,3.41-8.61,7.61-8.61h0ZM43.24,173.9v-3.48h14.47v12.1h-6.87c-4.19,0-7.61-3.86-7.61-8.61h0ZM81.72,182.51h-6.87v-12.1h14.48v3.48c0,4.75-3.41,8.61-7.61,8.61h0Z"/>
      <path class="cls-1" d="M425.39,293.57v-3.56c0-1.34-.85-2.24-2.23-2.25-.72-.01-1.47.21-1.99,1.01-.39-.63-1.01-1.01-1.87-1.01-.61,0-1.2.18-1.66.84v-.7h-1.23v5.67h1.25v-3.14c0-.98.55-1.51,1.39-1.51s1.23.53,1.23,1.49v3.16h1.25v-3.14c0-.98.57-1.51,1.39-1.51s1.25.53,1.25,1.49v3.16h1.25-.03ZM443.82,287.9h-2.02v-1.72h-1.25v1.72h-1.15v1.13h1.15v2.59c0,1.32.51,2.1,1.97,2.1.53,0,1.15-.17,1.54-.44l-.36-1.06c-.37.21-.77.32-1.09.32-.62,0-.82-.38-.82-.95v-2.56h2.02v-1.13h.01ZM454.35,287.75c-.71,0-1.17.33-1.49.83v-.69h-1.22v5.67h1.23v-3.18c0-.94.4-1.46,1.21-1.46.25,0,.51.04.77.14l.38-1.16c-.27-.11-.63-.15-.88-.15h0ZM438.44,288.35c-.59-.39-1.41-.59-2.31-.59-1.44,0-2.36.69-2.36,1.82,0,.93.69,1.5,1.96,1.67l.58.08c.68.09,1,.27,1,.59,0,.44-.45.69-1.29.69s-1.47-.27-1.89-.59l-.58.96c.68.5,1.53.74,2.46.74,1.64,0,2.59-.77,2.59-1.85,0-1-.75-1.52-1.98-1.7l-.58-.08c-.53-.07-.96-.18-.96-.56,0-.42.4-.66,1.08-.66.72,0,1.42.27,1.77.49l.53-1h-.02ZM471.49,287.75c-.71,0-1.17.33-1.49.83v-.69h-1.22v5.67h1.23v-3.18c0-.94.4-1.46,1.21-1.46.25,0,.51.04.77.14l.38-1.16c-.27-.11-.63-.15-.88-.15h0ZM455.59,290.73c0,1.72,1.2,2.98,3.03,2.98.85,0,1.42-.19,2.04-.68l-.59-1c-.46.33-.95.51-1.48.51-.98-.01-1.71-.72-1.71-1.82s.72-1.8,1.71-1.82c.53,0,1.02.18,1.48.51l.59-1c-.62-.49-1.19-.68-2.04-.68-1.83,0-3.03,1.26-3.03,2.98h0v.02ZM467.15,290.73v-2.84h-1.23v.69c-.39-.51-.98-.83-1.79-.83-1.59,0-2.84,1.25-2.84,2.98s1.25,2.98,2.84,2.98c.81,0,1.4-.32,1.79-.83v.69h1.23v-2.84ZM462.56,290.73c0-1,.65-1.82,1.72-1.82s1.71.78,1.71,1.82-.69,1.82-1.71,1.82-1.72-.82-1.72-1.82h0ZM447.67,287.75c-1.66,0-2.82,1.21-2.82,2.98s1.21,2.98,2.91,2.98c.85,0,1.64-.21,2.33-.8l-.61-.91c-.47.38-1.08.59-1.65.59-.79,0-1.52-.37-1.7-1.39h4.21c.01-.15.02-.31.02-.47-.01-1.77-1.1-2.98-2.69-2.98h0ZM447.65,288.86c.79,0,1.31.5,1.44,1.38h-2.94c.13-.82.63-1.38,1.51-1.38h-.01ZM478.6,290.73v-5.11h-1.23v2.97c-.39-.51-.98-.83-1.79-.83-1.59,0-2.84,1.25-2.84,2.98s1.25,2.98,2.84,2.98c.81,0,1.4-.32,1.79-.83v.69h1.23v-2.84h0ZM474.01,290.73c0-1,.65-1.82,1.72-1.82s1.71.78,1.71,1.82-.69,1.82-1.71,1.82-1.72-.82-1.72-1.82h0ZM432.34,290.73v-2.84h-1.23v.69c-.39-.51-.98-.83-1.79-.83-1.59,0-2.84,1.25-2.84,2.98s1.25,2.98,2.84,2.98c.81,0,1.4-.32,1.79-.83v.69h1.23v-2.84ZM427.75,290.73c0-1,.65-1.82,1.72-1.82s1.71.78,1.71,1.82-.69,1.82-1.71,1.82-1.72-.82-1.72-1.82ZM480.66,292.75c.08,0,.15.01.22.04.07.03.13.07.18.12s.09.11.12.18.04.14.04.22-.02.15-.04.22c-.03.07-.07.13-.12.18s-.11.09-.18.12-.14.04-.22.04-.16-.01-.23-.04-.13-.07-.18-.12-.09-.11-.12-.18c-.03-.07-.04-.14-.04-.22s.01-.15.04-.22c.03-.07.07-.13.12-.18s.11-.09.18-.12.15-.04.23-.04ZM480.66,293.75c.06,0,.12-.01.17-.03s.1-.05.14-.09c.04-.04.07-.09.09-.14s.03-.11.03-.17-.01-.12-.03-.17-.05-.1-.09-.14c-.04-.04-.09-.07-.14-.09s-.11-.03-.17-.03-.12.01-.17.03-.1.05-.14.09c-.04.04-.07.09-.09.14s-.03.11-.03.17.01.12.03.17.05.1.09.14c.04.04.09.07.14.09s.11.03.17.03ZM480.69,293.05c.07,0,.12.01.16.04s.05.07.05.12c0,.04-.01.08-.04.11-.03.03-.07.05-.12.05l.17.2h-.13l-.16-.2h-.05v.2h-.11v-.52h.24-.01ZM480.56,293.14v.14h.13s.05,0,.07-.02c.02-.01.03-.03.03-.05s0-.04-.03-.05c-.02-.01-.04-.02-.07-.02h-.13ZM479.89,274.7v-.69h.28v-.14h-.71v.14h.28v.69h.15,0ZM445.48,278.83c.17.15.34.29.52.43-3.39,2.26-7.45,3.57-11.82,3.57-11.8,0-21.36-9.56-21.36-21.36s9.56-21.36,21.36-21.36c4.37,0,8.44,1.31,11.82,3.57-.17.14-.35.28-.52.43-5.03,4.38-7.92,10.71-7.92,17.36s2.89,12.98,7.92,17.36ZM460.57,240.11c-4.37,0-8.44,1.31-11.82,3.57.17.14.35.28.52.43,5.03,4.38,7.92,10.71,7.92,17.36s-2.89,12.98-7.92,17.36c-.17.15-.34.29-.52.43,3.39,2.25,7.45,3.57,11.82,3.57,11.8,0,21.36-9.56,21.36-21.36s-9.56-21.36-21.36-21.36ZM447.37,244.68c-.28.22-.54.44-.81.67-4.5,3.92-7.35,9.68-7.35,16.12s2.85,12.2,7.35,16.12c.26.23.53.45.81.67.28-.22.54-.44.81-.67,4.5-3.92,7.35-9.68,7.35-16.12s-2.85-12.2-7.35-16.12c-.26-.23-.53-.45-.81-.67"/>
      <g>
        <g>
          <path class="cls-1" d="M384.77,51.66h-24.29v7.74h17.75c-8.7,1.31-15.7,7.81-17.75,16.24h7.11c2.08-5.65,7.51-9.68,13.89-9.68,1.13,0,2.24.13,3.3.37v-6.93h-.02.02v-7.74h-.01Z"/>
          <path class="cls-1" d="M377.03,68.72v6.92h7.74v-7.22c-1.03-.23-2.11-.38-3.22-.38-1.58,0-3.09.22-4.52.68Z"/>
        </g>
        <g>
          <path class="cls-3" d="M430.09,67.71h-13.92c.09,1.4.66,2.49,1.7,3.25,1.04.76,2.36,1.14,3.98,1.14.9,0,1.63-.09,2.18-.27s.99-.4,1.34-.68c.34-.27.68-.54,1.02-.8l2.82,2.25c-.62.62-1.24,1.15-1.86,1.61-.62.45-1.36.8-2.21,1.05-.86.25-1.95.37-3.28.37-2.14,0-3.93-.4-5.35-1.2-1.43-.8-2.49-1.9-3.19-3.3-.7-1.4-1.05-3.01-1.05-4.82s.31-3.38.93-4.78,1.59-2.51,2.93-3.32c1.33-.81,3.07-1.21,5.21-1.21s3.89.4,5.18,1.21c1.28.81,2.21,1.92,2.77,3.32s.84,3,.84,4.78v1.39h-.04ZM416.21,64.64h9.92c0-1.14-.4-2.11-1.2-2.91s-2-1.2-3.62-1.2-2.79.36-3.59,1.09c-.8.73-1.3,1.73-1.52,3.02h.01Z"/>
          <path class="cls-3" d="M411.56,72.03h-12.9l13.02-18.77v-1.64h-18.29v3.6h12.66l-12.98,18.73v1.67h22.28s-2.37-.61-3.79-3.6h0Z"/>
          <path class="cls-3" d="M442.48,54.42c-.61,0-1.13-.22-1.56-.65s-.65-.97-.65-1.6.22-1.13.65-1.56.96-.65,1.56-.65,1.13.22,1.56.65.65.96.65,1.56-.22,1.16-.65,1.6-.96.65-1.56.65ZM444.38,57.04v18.62h-3.86v-18.62h3.86Z"/>
          <path class="cls-3" d="M456.27,52.35c-.64.2-1.16.53-1.53,1.15-.36.62-.55,1.55-.55,2.78v.76h8.05v3.56h-8.05v15.06h-3.86v-15.06h-2.33v-3.56h2.33v-.84c0-1.84.3-3.33.89-4.46s1.45-1.93,2.56-2.42c0,0,2.05-1.31,8.93-.12v3.44s-4.38-.95-6.46-.3h.02Z"/>
          <rect class="cls-3" x="432.88" y="48.75" width="4.07" height="26.94"/>
          <polygon class="cls-3" points="477.19 57.04 472.44 69.18 467.35 57.04 463.44 57.04 470.55 73.99 467.21 82.51 471.12 82.51 481.1 57.04 477.19 57.04"/>
        </g>
      </g>
      <g>
        <path class="cls-3" d="M45.26,264.95l-5.42-12.26h1.24l4.79,11,4.79-11h1.24l-5.42,12.26h-1.23.01Z"/>
        <path class="cls-3" d="M55.58,265.16c-.84,0-1.51-.13-2-.39s-.84-.6-1.06-1.01-.33-.85-.33-1.31v-.22c0-.33.07-.68.2-1.05.14-.37.39-.69.77-.98.38-.28.93-.46,1.64-.54l2.45-.3c.54-.06.94-.14,1.19-.24s.37-.28.37-.54c0-.66-.22-1.16-.67-1.52-.45-.36-1.13-.54-2.06-.54-.47,0-.88.05-1.24.16-.35.11-.65.26-.89.46-.24.2-.43.46-.57.77l-1.08-.35c.15-.36.35-.67.6-.95s.55-.49.9-.66.72-.29,1.12-.37.82-.12,1.25-.12c.9.01,1.64.15,2.2.42.56.27.98.68,1.24,1.25.26.57.39,1.32.39,2.25v5.57h-1.13v-1.52c-.16.31-.4.59-.72.85s-.7.47-1.15.63-.94.24-1.46.24h.04ZM55.55,264.1c.78,0,1.42-.14,1.91-.43.5-.28.86-.63,1.09-1.03s.35-.79.36-1.16v-1.62c-.1.12-.28.22-.54.28-.26.06-.61.12-1.04.17l-2.36.3c-.56.07-.97.25-1.24.53s-.4.63-.4,1.07v.17c0,.29.07.56.2.83.14.27.37.48.69.65.32.17.76.25,1.32.25h0Z"/>
        <path class="cls-3" d="M67.31,264.97c-.07.01-.16.02-.26.04s-.2.02-.3.03c-.1,0-.19.01-.28.03-1.23.04-2.13-.27-2.72-.92-.59-.65-.88-1.68-.88-3.08v-9.21h1.13v9.2c0,1.1.2,1.88.61,2.32.41.45,1.07.64,1.99.59.09,0,.18,0,.28-.03.1-.02.18-.03.24-.03l.19,1.06h0Z"/>
        <path class="cls-3" d="M76.73,260.7h-7.49c.02,1.07.29,1.9.81,2.5.51.6,1.34.9,2.48.9.51,0,.94-.06,1.29-.18s.65-.28.9-.49c.25-.21.46-.44.63-.69l.98.56c-.24.36-.52.68-.85.96-.33.28-.74.5-1.23.66s-1.06.24-1.73.24c-1.05,0-1.9-.2-2.55-.6-.65-.4-1.13-.97-1.44-1.69-.31-.72-.46-1.58-.46-2.55s.15-1.81.45-2.54c.3-.73.77-1.3,1.41-1.7s1.49-.6,2.54-.6,1.82.2,2.44.6,1.08.97,1.38,1.69c.29.72.44,1.58.44,2.55v.39h0ZM69.24,259.73h6.3c0-.98-.25-1.76-.75-2.34s-1.27-.87-2.31-.87c-1.1,0-1.9.28-2.4.85-.5.57-.77,1.36-.84,2.36h0Z"/>
        <path class="cls-3" d="M86.66,265.01v-4.98c0-1.14-.2-2.02-.6-2.63s-1.1-.92-2.09-.92c-.73,0-1.38.18-1.95.55s-1.02.86-1.35,1.49c-.33.62-.49,1.32-.49,2.07v4.42h-1.13v-9.29h1.13v2.1c.21-.42.5-.81.85-1.18.36-.37.79-.66,1.29-.88.5-.22,1.07-.33,1.72-.33.92,0,1.65.18,2.19.55s.94.89,1.19,1.57.37,1.49.37,2.43v5.03h-1.13Z"/>
        <path class="cls-3" d="M95.53,265.01c-.09.01-.18.02-.28.04s-.19.02-.29.03c-.09,0-.19.01-.29.03-1.23.04-2.13-.28-2.72-.94s-.88-1.69-.88-3.09v-4.37h-1.39v-1.04h1.43l.2-3.79h.89v3.79h2.51l.02,1.04h-2.53v4.35c0,1.1.21,1.88.62,2.34s1.08.66,2,.61c.07,0,.15,0,.24-.02.09-.01.17-.02.26-.04l.2,1.06h.01Z"/>
        <path class="cls-3" d="M97.61,253.84c-.21,0-.39-.07-.53-.21-.14-.14-.21-.31-.21-.51s.07-.37.21-.51c.14-.14.32-.21.53-.21s.37.07.51.21.21.31.21.51-.07.37-.21.51-.31.21-.51.21ZM98.16,255.67v9.29h-1.13v-9.29h1.13Z"/>
        <path class="cls-3" d="M108.96,265.01v-4.98c0-1.14-.2-2.02-.6-2.63s-1.1-.92-2.09-.92c-.73,0-1.38.18-1.95.55s-1.02.86-1.35,1.49c-.33.62-.49,1.32-.49,2.07v4.42h-1.13v-9.29h1.13v2.1c.21-.42.5-.81.85-1.18.36-.37.79-.66,1.29-.88.5-.22,1.07-.33,1.72-.33.92,0,1.65.18,2.19.55s.94.89,1.19,1.57.37,1.49.37,2.43v5.03h-1.13,0Z"/>
        <path class="cls-3" d="M115.74,265.16c-.84,0-1.51-.13-2-.39s-.84-.6-1.06-1.01-.33-.85-.33-1.31v-.22c0-.33.07-.68.2-1.05.14-.37.39-.69.77-.98.38-.28.93-.46,1.64-.54l2.45-.3c.54-.06.94-.14,1.19-.24s.37-.28.37-.54c0-.66-.22-1.16-.67-1.52-.45-.36-1.13-.54-2.06-.54-.47,0-.88.05-1.24.16-.35.11-.65.26-.89.46s-.43.46-.57.77l-1.08-.35c.15-.36.35-.67.6-.95s.55-.49.9-.66c.35-.17.72-.29,1.12-.37s.82-.12,1.25-.12c.9.01,1.64.15,2.2.42.56.27.98.68,1.24,1.25s.39,1.32.39,2.25v5.57h-1.13v-1.52c-.16.31-.4.59-.72.85s-.7.47-1.15.63-.94.24-1.46.24h.04ZM115.7,264.1c.78,0,1.42-.14,1.91-.43.5-.28.86-.63,1.09-1.03.23-.4.35-.79.36-1.16v-1.62c-.1.12-.28.22-.54.28-.26.06-.61.12-1.04.17l-2.36.3c-.56.07-.97.25-1.24.53s-.4.63-.4,1.07v.17c0,.29.07.56.2.83.14.27.37.48.69.65.32.17.76.25,1.32.25h0Z"/>
        <path class="cls-3" d="M133.46,252.69c1.24,0,2.27.25,3.1.74s1.46,1.2,1.88,2.12.63,2,.63,3.25-.21,2.35-.63,3.27c-.42.92-1.05,1.63-1.88,2.13s-1.86.75-3.1.75h-4.66v-12.26h4.66ZM129.93,263.9h3.53c1,0,1.84-.21,2.5-.61.66-.41,1.15-.99,1.47-1.76.32-.76.47-1.67.47-2.72s-.16-1.94-.47-2.69c-.32-.75-.81-1.34-1.47-1.75s-1.5-.61-2.5-.61h-3.53v10.14h0Z"/>
        <path class="cls-3" d="M142.43,255.67v4.98c0,1.13.2,2,.61,2.62s1.11.93,2.1.93c.73,0,1.38-.19,1.95-.56s1.02-.87,1.35-1.49c.33-.62.49-1.31.49-2.06v-4.42h1.13v9.29h-1.13v-2.1c-.22.41-.51.8-.86,1.16-.35.37-.78.66-1.28.89-.5.23-1.07.34-1.72.34-.92,0-1.65-.19-2.2-.56s-.95-.9-1.2-1.58-.37-1.49-.37-2.42v-5.03h1.13Z"/>
        <path class="cls-3" d="M155.96,265.16c-.84,0-1.51-.13-2-.39s-.84-.6-1.06-1.01-.33-.85-.33-1.31v-.22c0-.33.07-.68.2-1.05.14-.37.39-.69.77-.98.38-.28.93-.46,1.64-.54l2.45-.3c.54-.06.94-.14,1.19-.24s.37-.28.37-.54c0-.66-.22-1.16-.67-1.52-.45-.36-1.13-.54-2.06-.54-.47,0-.88.05-1.24.16-.35.11-.65.26-.89.46s-.43.46-.57.77l-1.08-.35c.15-.36.35-.67.6-.95s.55-.49.9-.66c.35-.17.72-.29,1.12-.37s.82-.12,1.25-.12c.9.01,1.64.15,2.2.42.56.27.98.68,1.24,1.25s.39,1.32.39,2.25v5.57h-1.13v-1.52c-.16.31-.4.59-.72.85s-.7.47-1.15.63-.94.24-1.46.24h.04ZM155.92,264.1c.78,0,1.42-.14,1.91-.43.5-.28.86-.63,1.09-1.03.23-.4.35-.79.36-1.16v-1.62c-.1.12-.28.22-.54.28-.26.06-.61.12-1.04.17l-2.36.3c-.56.07-.97.25-1.24.53s-.4.63-.4,1.07v.17c0,.29.07.56.2.83.14.27.37.48.69.65.32.17.76.25,1.32.25h0Z"/>
        <path class="cls-3" d="M167.9,256.72c-.85,0-1.54.17-2.05.5s-.89.8-1.12,1.39-.35,1.26-.35,2.01v4.38h-1.13v-9.29h1.13v1.82c.25-.42.53-.77.85-1.05.32-.28.69-.49,1.12-.62s.95-.2,1.56-.2h2.3l.2-3.79h.89v3.79h2.54v1.04h-2.54v4.31c0,1.13.21,1.92.63,2.38s1.08.66,1.99.61c.09-.01.17-.02.25-.03.08,0,.16-.01.25-.03l.2,1.02c-.09.01-.18.02-.27.04s-.19.02-.3.03c-.1,0-.2.01-.29.03-1.21.04-2.12-.27-2.71-.92-.59-.65-.89-1.68-.89-3.08v-4.37l-2.27.02h.01Z"/>
        <path class="cls-3" d="M184.12,260.7h-7.49c.02,1.07.29,1.9.81,2.5.51.6,1.34.9,2.48.9.51,0,.94-.06,1.29-.18s.65-.28.9-.49c.25-.21.46-.44.63-.69l.98.56c-.24.36-.52.68-.85.96-.33.28-.74.5-1.23.66s-1.06.24-1.73.24c-1.05,0-1.9-.2-2.55-.6-.65-.4-1.13-.97-1.44-1.69-.31-.72-.46-1.58-.46-2.55s.15-1.81.45-2.54.77-1.3,1.41-1.7,1.49-.6,2.54-.6,1.82.2,2.44.6,1.08.97,1.38,1.69c.29.72.44,1.58.44,2.55v.39h0ZM176.63,259.73h6.3c0-.98-.25-1.76-.75-2.34s-1.27-.87-2.31-.87c-1.1,0-1.9.28-2.4.85-.5.57-.77,1.36-.84,2.36h0Z"/>
      </g>
      <g>
        <path class="cls-3" d="M47.15,284.09l-.56.8-2.12-1.45v2.58h-.97l-.02-2.58-2.14,1.45-.56-.8,2.28-1.58-2.28-1.54.56-.82,2.14,1.45-.02-2.58h.98v2.6l2.14-1.47.56.82-2.28,1.54,2.28,1.58h0Z"/>
        <path class="cls-3" d="M56.46,284.09l-.56.8-2.12-1.45v2.58h-.97l-.02-2.58-2.14,1.45-.56-.8,2.28-1.58-2.28-1.54.56-.82,2.14,1.45-.02-2.58h.98v2.6l2.14-1.47.56.82-2.28,1.54,2.28,1.58h0Z"/>
        <path class="cls-3" d="M65.76,284.09l-.56.8-2.12-1.45v2.58h-.97l-.02-2.58-2.14,1.45-.56-.8,2.28-1.58-2.28-1.54.56-.82,2.14,1.45-.02-2.58h.98v2.6l2.14-1.47.56.82-2.28,1.54,2.28,1.58h0Z"/>
        <path class="cls-3" d="M75.07,284.09l-.56.8-2.12-1.45v2.58h-.97l-.02-2.58-2.14,1.45-.56-.8,2.28-1.58-2.28-1.54.56-.82,2.14,1.45-.02-2.58h.98v2.6l2.14-1.47.56.82-2.28,1.54,2.28,1.58h0Z"/>
        <path class="cls-3" d="M89.95,284.09l-.56.8-2.12-1.45v2.58h-.97l-.02-2.58-2.14,1.45-.56-.8,2.28-1.58-2.28-1.54.56-.82,2.14,1.45-.02-2.58h.98v2.6l2.14-1.47.56.82-2.28,1.54,2.28,1.58h0Z"/>
        <path class="cls-3" d="M99.26,284.09l-.56.8-2.12-1.45v2.58h-.97l-.02-2.58-2.14,1.45-.56-.8,2.28-1.58-2.28-1.54.56-.82,2.14,1.45-.02-2.58h.98v2.6l2.14-1.47.56.82-2.28,1.54,2.28,1.58h0Z"/>
        <path class="cls-3" d="M108.57,284.09l-.56.8-2.12-1.45v2.58h-.97l-.02-2.58-2.14,1.45-.56-.8,2.28-1.58-2.28-1.54.56-.82,2.14,1.45-.02-2.58h.98v2.6l2.14-1.47.56.82-2.28,1.54,2.28,1.58h.01Z"/>
        <path class="cls-3" d="M117.87,284.09l-.56.8-2.12-1.45v2.58h-.97l-.02-2.58-2.14,1.45-.56-.8,2.28-1.58-2.28-1.54.56-.82,2.14,1.45-.02-2.58h.98v2.6l2.14-1.47.56.82-2.28,1.54,2.28,1.58h.01Z"/>
        <path class="cls-3" d="M132.75,284.09l-.56.8-2.12-1.45v2.58h-.97l-.02-2.58-2.14,1.45-.56-.8,2.28-1.58-2.28-1.54.56-.82,2.14,1.45-.02-2.58h.98v2.6l2.14-1.47.56.82-2.28,1.54,2.28,1.58h.01Z"/>
        <path class="cls-3" d="M142.06,284.09l-.56.8-2.12-1.45v2.58h-.97l-.02-2.58-2.14,1.45-.56-.8,2.28-1.58-2.28-1.54.56-.82,2.14,1.45-.02-2.58h.98v2.6l2.14-1.47.56.82-2.28,1.54,2.28,1.58h.01Z"/>
        <path class="cls-3" d="M151.37,284.09l-.56.8-2.12-1.45v2.58h-.97l-.02-2.58-2.14,1.45-.56-.8,2.28-1.58-2.28-1.54.56-.82,2.14,1.45-.02-2.58h.98v2.6l2.14-1.47.56.82-2.28,1.54,2.28,1.58h.01Z"/>
        <path class="cls-3" d="M160.67,284.09l-.56.8-2.12-1.45v2.58h-.97l-.02-2.58-2.14,1.45-.56-.8,2.28-1.58-2.28-1.54.56-.82,2.14,1.45-.02-2.58h.98v2.6l2.14-1.47.56.82-2.28,1.54,2.28,1.58h.01Z"/>
        <path class="cls-3" d="M171.89,292.49h-1.13v-10.96l-1.88,1.8-.71-.78,2.47-2.32h1.24v12.26h.01Z"/>
        <path class="cls-3" d="M173.81,292.49c0-.45.08-.88.23-1.29.15-.42.39-.82.72-1.21.32-.39.73-.78,1.22-1.18s1.07-.8,1.74-1.21l1.84-1.15c.5-.31.89-.61,1.17-.89.28-.28.49-.59.62-.93.13-.33.19-.73.19-1.19,0-.38-.11-.77-.34-1.15-.23-.38-.57-.7-1.03-.96-.46-.25-1.02-.38-1.69-.38-.61,0-1.11.07-1.5.22-.4.15-.71.34-.94.57s-.4.47-.51.72l-1.08-.35c.11-.28.27-.56.48-.82.21-.26.48-.5.81-.71s.72-.38,1.17-.5.98-.19,1.57-.19c.69,0,1.31.11,1.84.32s.98.49,1.33.83c.35.34.62.72.8,1.13s.27.83.27,1.25c0,.57-.08,1.07-.24,1.5s-.44.84-.84,1.23-.94.79-1.62,1.23l-1.89,1.21c-.45.27-.86.56-1.25.86s-.73.62-1.01.95c-.29.33-.48.67-.59,1.03h7.25v1.06h-8.72Z"/>
        <path class="cls-3" d="M188.26,285.46h.19c1.03.01,1.8-.18,2.31-.58.51-.4.77-.91.77-1.54s-.26-1.16-.79-1.62-1.29-.69-2.29-.69c-.74,0-1.36.15-1.85.45s-.83.65-1.01,1.06l-1.11-.37c.17-.41.44-.78.79-1.11.35-.33.8-.6,1.34-.8.54-.2,1.15-.3,1.85-.3.92,0,1.69.15,2.32.45s1.11.69,1.43,1.19.48,1.04.48,1.63-.16,1.14-.47,1.6c-.32.46-.77.81-1.37,1.06.72.26,1.27.65,1.64,1.17.38.52.57,1.14.57,1.86s-.17,1.34-.52,1.91-.86,1.02-1.54,1.37c-.68.34-1.53.51-2.55.51-.74,0-1.39-.1-1.95-.3-.56-.2-1.02-.47-1.39-.82s-.66-.72-.85-1.13l1.08-.37c.23.41.62.76,1.14,1.07s1.19.46,1.98.46,1.39-.12,1.9-.37.9-.58,1.17-.98c.27-.41.4-.85.4-1.34,0-.77-.29-1.38-.88-1.83s-1.45-.67-2.59-.66h-.19v-.97h-.01Z"/>
        <path class="cls-3" d="M201.6,292.49h-1.13v-3.34h-6.39v-.84l6.02-8.08h1.5v7.9h1.39v1.02h-1.39v3.34ZM195.47,288.12h5l.02-6.71-5.02,6.71Z"/>
      </g>
    </g>
  </g>
</svg>